PathFileType	4	(X/Y/Z)	CPRIT_Patient3_R_AnkleIso_Processed.TRC
DataRate	CameraRate	NumFrames	NumMarkers	Units	OrigDataRate	OrigDataStartFrame	OrigNumFrames
150.227617602428	150.227617602428	4	39	m	150.227617602428	166	       661
Frame#	Time	R.Heel			R.Midfoot.Superior			R.Midfoot.Lateral			R.Toe			L.Heel			L.Midfoot.Superior			L.Midfoot.Lateral			L.Toe			R.Shank.Superior			R.Shank.Inferior			R.Shank.Lateral			R.Shank.Posterior			L.Shank.Superior			L.Shank.Inferior			L.Shank.Posterior			L.Shank.Lateral			R.Patella			L.Patella			R.Thigh.Superior			R.Thigh.Lateral			R.Thigh.Inferior			L.Thigh.Superior			L.Thigh.Inferior			L.Thigh.Lateral			L.Asis			R.Asis			Sacral			R.Shoulder			L.Shoulder			C7			J.Notch			Sternum			Thoracic			L.Elbow			L.Wrist			R.Elbow			R.Wrist			R.PSIS			L.PSIS			
		X1	Y1	Z1	X2	Y2	Z2	X3	Y3	Z3	X4	Y4	Z4	X5	Y5	Z5	X6	Y6	Z6	X7	Y7	Z7	X8	Y8	Z8	X9	Y9	Z9	X10	Y10	Z10	X11	Y11	Z11	X12	Y12	Z12	X13	Y13	Z13	X14	Y14	Z14	X15	Y15	Z15	X16	Y16	Z16	X17	Y17	Z17	X18	Y18	Z18	X19	Y19	Z19	X20	Y20	Z20	X21	Y21	Z21	X22	Y22	Z22	X23	Y23	Z23	X24	Y24	Z24	X25	Y25	Z25	X26	Y26	Z26	X27	Y27	Z27	X28	Y28	Z28	X29	Y29	Z29	X30	Y30	Z30	X31	Y31	Z31	X32	Y32	Z32	X33	Y33	Z33	X34	Y34	Z34	X35	Y35	Z35	X36	Y36	Z36	X37	Y37	Z37	X38	Y38	Z38	X39	Y39	Z39	

166	1.098333333333	0.950045277600	0.133253770844	0.178631338854	1.125578273858	0.138180978073	0.146557882649	1.032095463674	0.090596970786	0.203312708281	1.218382293501	0.064964138002	0.102693575893	0.643935334878	0.042737822830	-0.093827793214	0.806580076484	0.095598480241	-0.144527541662	0.709483965372	0.032691718506	-0.166019545254	0.920240190706	0.056594774909	-0.173615357761	0.991396163391	0.428813563341	0.143242522276	1.025231099599	0.312884740850	0.162236697950	0.941380711239	0.351684647717	0.208283302386	0.859951089936	0.377270046244	0.147744106124	0.770330428269	0.363476336611	-0.166778168511	0.758046754432	0.236089332696	-0.151050369898	0.631676105755	0.344578918893	-0.149980517840	0.695742359731	0.278247515291	-0.204090663085	0.969491252411	0.548571433456	0.105432569591	0.802431030937	0.465724560430	-0.168467331228	0.876680353379	0.836230755191	0.089355301661	0.828824205937	0.752868980110	0.145805705901	0.932181745619	0.692613303128	0.070986743258	0.859535181186	0.776195034386	-0.182391647300	0.843265522584	0.611527101629	-0.170010673807	0.760034373001	0.705183620373	-0.239945670314	0.852303050304	0.936865947875	-0.174991671543	0.816196769984	0.950193504777	0.065993908260	0.645900677691	0.984891720580	-0.071689400353	0.771801288064	1.439992892826	0.092248475632	0.812678136866	1.455889187799	-0.216901901285	0.748022322746	1.477163196815	-0.062612383600	0.852320929902	1.364698272212	-0.057353719003	0.893541043935	1.186870902934	-0.061936351328	0.643506808567	1.326077331820	-0.080929151387	0.850995189860	1.173271531596	-0.382483983066	1.008718775926	0.988395817889	-0.444027323643	0.769531030902	1.167010133378	0.276963955773	0.906854703629	0.991645951646	0.405253587980	0.642244995320	0.985828845484	-0.034843993515	0.649126211560	0.985918231951	-0.108738077680	
167	1.104989898990	0.949788206226	0.133390050384	0.178874547056	1.125303401286	0.138101168932	0.147004858865	1.031752894081	0.090639611380	0.203649643742	1.218086909721	0.064780490560	0.103264013124	0.643934328266	0.042737975384	-0.093829416552	0.806578528115	0.095600293220	-0.144526606708	0.709483295428	0.032690990128	-0.166019865636	0.920239815673	0.056596462212	-0.173615054233	0.991286875024	0.428868221087	0.143492081558	1.025078634936	0.312922669821	0.162537559861	0.941225060181	0.351787441081	0.208554828584	0.859866413977	0.377391408166	0.147936461131	0.770313182835	0.363476382013	-0.166795746676	0.758036312834	0.236090994459	-0.151064183174	0.631656278547	0.344571460267	-0.150007307303	0.695729963919	0.278241772755	-0.204107468345	0.969446013694	0.548619248416	0.105625119631	0.802483283455	0.465712265988	-0.168579349768	0.876613811583	0.836281812685	0.089335508625	0.828769436973	0.752965311370	0.145819159739	0.932133156786	0.692659536636	0.071068315217	0.859548133338	0.776189511052	-0.182463597711	0.843305607347	0.611516964273	-0.170106196982	0.760027759054	0.705175505505	-0.239984198380	0.852298499562	0.936858187796	-0.175029256714	0.816144124049	0.950206944582	0.065954044661	0.645880887234	0.984897191158	-0.071769485052	0.771748497059	1.439973936276	0.092242294355	0.812690209091	1.455900661008	-0.216902256788	0.748016005328	1.477168524963	-0.062627815627	0.852300337115	1.364688325020	-0.057340844888	0.893506682098	1.186861061608	-0.061951474094	0.643497353384	1.326089569989	-0.080981394686	0.851006022221	1.173282872827	-0.382492264477	1.008718256903	0.988396427466	-0.444029001601	0.769515220751	1.166997785810	0.276953786355	0.906852156059	0.991648256927	0.405258109780	0.642216589419	0.985840893014	-0.034926679728	0.649125573211	0.985922664286	-0.108823222766	
168	1.111646464646	0.949541158982	0.133522100709	0.179114245991	1.125044286132	0.138031846563	0.147458849512	1.031421086028	0.090689028438	0.203993440480	1.217814504510	0.064607740070	0.103857823820	0.643933483301	0.042738220918	-0.093830835552	0.806577047821	0.095602235951	-0.144524626621	0.709482700402	0.032690308708	-0.166020130002	0.920239736369	0.056598167991	-0.173614493822	0.991175886324	0.428922570231	0.143742040208	1.024927174458	0.312962020068	0.162840286186	0.941065903297	0.351886063623	0.208820405915	0.859782903907	0.377509149714	0.148116502189	0.770297058766	0.363476270780	-0.166813155498	0.758026492476	0.236092634847	-0.151077721787	0.631637677871	0.344564231728	-0.150033228118	0.695718347599	0.278236030435	-0.204123815016	0.969397902946	0.548667073539	0.105821993150	0.802517753644	0.465700482842	-0.168667082096	0.876545065123	0.836329312547	0.089320072225	0.828706783576	0.753054952950	0.145835033484	0.932081965757	0.692703812035	0.071156347924	0.859554519140	0.776183993413	-0.182525920783	0.843330882059	0.611508294165	-0.170184052785	0.760020099818	0.705167217452	-0.240023190700	0.852292620622	0.936851163378	-0.175068415062	0.816091793140	0.950220306687	0.065911961369	0.645859783462	0.984901478430	-0.071850454023	0.771696938873	1.439954317336	0.092235613178	0.812703867825	1.455912365651	-0.216903399896	0.748010746457	1.477174153122	-0.062642747134	0.852280335790	1.364678012806	-0.057329556015	0.893470898472	1.186850602191	-0.061969789129	0.643487734589	1.326103444892	-0.081034062047	0.851016652166	1.173294747931	-0.382501557968	1.008717513689	0.988397119703	-0.444031785822	0.769499594112	1.166985422777	0.276943578143	0.906849798501	0.991650404768	0.405262343980	0.642187336690	0.985851795730	-0.035010541192	0.649122453872	0.985926106927	-0.108908997759	
169	1.118303030303	0.949303471637	0.133651141992	0.179347976967	1.124801908747	0.137972466896	0.147920691275	1.031098783203	0.090746083389	0.204343538718	1.217565846007	0.064443464635	0.104479235781	0.643932815001	0.042738550950	-0.093832034438	0.806575662468	0.095604251300	-0.144521453972	0.709482199471	0.032689686595	-0.166020343393	0.920239950664	0.056599844797	-0.173613667390	0.991063282121	0.428976671540	0.143992099676	1.024776845742	0.313002878353	0.163144368082	0.940903069711	0.351980256695	0.209078956555	0.859700242960	0.377622956977	0.148283060314	0.770282356862	0.363475931250	-0.166830275708	0.758017504997	0.236094197174	-0.151090803989	0.631620697368	0.344557316717	-0.150058254819	0.695707858470	0.278230319985	-0.204139680087	0.969346934577	0.548715129432	0.106023093544	0.802534931485	0.465689267416	-0.168730406219	0.876473677964	0.836373262699	0.089310345811	0.828635184896	0.753137288472	0.145853548325	0.932028212563	0.692746431902	0.071251750627	0.859554795261	0.776178550124	-0.182578065749	0.843341828025	0.611501142279	-0.170243873454	0.760011954139	0.705158765432	-0.240062361547	0.852285818380	0.936844935708	-0.175108460871	0.816039242029	0.950233776596	0.065868266113	0.645837298010	0.984904493167	-0.071932467226	0.771646682197	1.439934072565	0.092228194089	0.812719158290	1.455924320956	-0.216905452736	0.748006492544	1.477180113683	-0.062657359853	0.852260801980	1.364667312564	-0.057319997711	0.893433527208	1.186839513153	-0.061991248803	0.643477827667	1.326118985316	-0.081087435578	0.851027159417	1.173307248819	-0.382512103801	1.008716555861	0.988397909814	-0.444035707874	0.769484422100	1.166972992253	0.276932923763	0.906847660809	0.991652387499	0.405266194787	0.642157074448	0.985861399923	-0.035095710861	0.649116831993	0.985928469432	-0.108995474150	
